<svg xmlns="http://www.w3.org/2000/svg" xmlns:xlink="http://www.w3.org/1999/xlink" width="64" zoomAndPan="magnify" viewBox="0 0 48 48" height="64" preserveAspectRatio="xMidYMid meet" version="1.0"><path fill="#ffde59" d="M 29.277344 18.234375 L 18.722656 18.234375 L 18.722656 28.785156 L 29.277344 28.785156 Z M 24.125 26.613281 L 23.679688 25.371094 L 21.761719 25.371094 L 21.320312 26.613281 L 20.003906 26.613281 L 22.210938 20.40625 L 23.230469 20.40625 L 25.441406 26.613281 Z M 27.375 26.613281 L 26.136719 26.613281 L 26.136719 20.40625 L 27.375 20.40625 Z M 27.375 26.613281 " fill-opacity="1" fill-rule="nonzero"/><path fill="#ffde59" d="M 22.203125 24.132812 L 23.238281 24.132812 L 22.722656 22.679688 Z M 22.203125 24.132812 " fill-opacity="1" fill-rule="nonzero"/><path fill="#ffde59" d="M 35.621094 19.164062 L 36.859375 15.441406 L 38.894531 15.441406 L 38.894531 14.199219 L 35.964844 14.199219 L 34.726562 17.925781 L 32.6875 17.925781 L 32.6875 16.425781 L 31.085938 14.820312 L 29.585938 14.820312 L 29.585938 12.785156 L 33.308594 11.542969 L 33.308594 8.613281 L 32.070312 8.613281 L 32.070312 10.648438 L 28.34375 11.890625 L 28.34375 14.820312 L 27.101562 14.820312 L 27.101562 11.71875 L 25.863281 11.71875 L 25.863281 14.820312 L 24.621094 14.820312 L 24.621094 8.613281 L 23.378906 8.613281 L 23.378906 14.820312 L 22.136719 14.820312 L 22.136719 11.71875 L 20.898438 11.71875 L 20.898438 14.820312 L 19.65625 14.820312 L 19.65625 11.890625 L 15.929688 10.648438 L 15.929688 8.613281 L 14.691406 8.613281 L 14.691406 11.542969 L 18.414062 12.785156 L 18.414062 14.820312 L 16.914062 14.820312 L 15.3125 16.425781 L 15.3125 17.925781 L 13.273438 17.925781 L 12.035156 14.199219 L 9.105469 14.199219 L 9.105469 15.441406 L 11.140625 15.441406 L 12.378906 19.164062 L 15.3125 19.164062 L 15.3125 20.40625 L 12.207031 20.40625 L 12.207031 21.648438 L 15.3125 21.648438 L 15.3125 22.890625 L 9.105469 22.890625 L 9.105469 24.132812 L 15.3125 24.132812 L 15.3125 25.371094 L 12.207031 25.371094 L 12.207031 26.613281 L 15.3125 26.613281 L 15.3125 27.855469 L 12.378906 27.855469 L 11.140625 31.578125 L 9.105469 31.578125 L 9.105469 32.820312 L 12.035156 32.820312 L 13.273438 29.097656 L 15.3125 29.097656 L 15.3125 30.59375 L 16.914062 32.199219 L 18.414062 32.199219 L 18.414062 34.234375 L 14.691406 35.476562 L 14.691406 38.40625 L 15.929688 38.40625 L 15.929688 36.371094 L 19.65625 35.128906 L 19.65625 32.199219 L 20.898438 32.199219 L 20.898438 35.304688 L 22.136719 35.304688 L 22.136719 32.199219 L 23.378906 32.199219 L 23.378906 38.40625 L 24.621094 38.40625 L 24.621094 32.199219 L 25.863281 32.199219 L 25.863281 35.304688 L 27.101562 35.304688 L 27.101562 32.199219 L 28.34375 32.199219 L 28.34375 35.128906 L 32.070312 36.371094 L 32.070312 38.40625 L 33.308594 38.40625 L 33.308594 35.476562 L 29.585938 34.234375 L 29.585938 32.199219 L 31.085938 32.199219 L 32.6875 30.59375 L 32.6875 29.097656 L 34.726562 29.097656 L 35.964844 32.820312 L 38.894531 32.820312 L 38.894531 31.578125 L 36.859375 31.578125 L 35.621094 27.855469 L 32.6875 27.855469 L 32.6875 26.613281 L 35.792969 26.613281 L 35.792969 25.371094 L 32.6875 25.371094 L 32.6875 24.132812 L 38.894531 24.132812 L 38.894531 22.890625 L 32.6875 22.890625 L 32.6875 21.648438 L 35.792969 21.648438 L 35.792969 20.40625 L 32.6875 20.40625 L 32.6875 19.164062 Z M 30.515625 30.027344 L 17.484375 30.027344 L 17.484375 16.992188 L 30.515625 16.992188 Z M 30.515625 30.027344 " fill-opacity="1" fill-rule="nonzero"/></svg>